<?xml version="1.0" encoding="utf-8"?>
<!-- Generator: Adobe Illustrator 24.0.1, SVG Export Plug-In . SVG Version: 6.00 Build 0)  -->
<svg version="1.1" id="Layer_1" xmlns="http://www.w3.org/2000/svg" xmlns:xlink="http://www.w3.org/1999/xlink" x="0px" y="0px"
	 viewBox="0 0 1920 1080" style="enable-background:new 0 0 1920 1080;" xml:space="preserve">
<style type="text/css">
	.st0{fill:#00AAFF;}
	.st1{fill:#FF4053;}
	.st2{fill:#965EEB;}
	.st3{fill:#04E061;}
</style>
<title>x</title>
<path class="st0" d="M688.1,534.5c-18.3-18.3-47.9-18.3-66.2,0l0,0c-18.3,18.3-18.3,47.9,0,66.2c18.3,18.3,47.9,18.3,66.2,0
	C706.4,582.4,706.4,552.8,688.1,534.5z"/>
<path class="st1" d="M562.3,571.6v22.2l66.5,66.5H651C645.3,613.9,608.7,577.4,562.3,571.6L562.3,571.6z"/>
<path class="st2" d="M688.1,534.5L688.1,534.5c16,16.1,37,26.4,59.6,29.1v-22.2l-66.5-66.5H659C661.8,497.5,672,518.4,688.1,534.5
	L688.1,534.5z"/>
<path class="st3" d="M688.1,600.7c-16.1,16-26.4,37-29.1,59.6h22.2l66.5-66.5v-22.2C725.2,574.4,704.2,584.6,688.1,600.7z"/>
<path class="st3" d="M621.9,534.5L621.9,534.5c16.1-16,26.4-37,29.1-59.6h-22.2l-66.5,66.5v22.2
	C584.9,560.8,605.9,550.6,621.9,534.5L621.9,534.5z"/>
<path d="M909.3,619c-11.7,0-21.1,9.4-21.2,21c0,11.7,9.4,21.1,21,21.2l0,0c11.7,0,21.1-9.4,21.2-21C930.4,628.5,920.9,619,909.3,619
	z M909.3,650.4c-5.7,0-10.3-4.7-10.2-10.4c0-5.7,4.7-10.3,10.4-10.2c5.7,0,10.3,4.7,10.2,10.4c0,5.6-4.5,10.2-10.1,10.3
	C909.5,650.4,909.4,650.4,909.3,650.4L909.3,650.4z"/>
<polygon points="794.6,660.5 805.1,660.5 805.1,630 820.5,630 820.5,660.5 831,660.5 831,619.7 794.6,619.7 "/>
<path d="M863.8,619c-4.8,0-9.8,2.6-11.9,5.3v-4.5h-10.2v58.1h10.5V656c2.3,3.3,7.1,5.3,11.7,5.3c10.7,0,19.5-9.4,19.5-21
	S874.5,619,863.8,619z M862.1,650.4c-5.7,0-10.3-4.7-10.2-10.4s4.7-10.3,10.4-10.2c5.7,0,10.3,4.7,10.2,10.4
	c0,5.6-4.5,10.2-10.1,10.3C862.3,650.4,862.2,650.4,862.1,650.4L862.1,650.4z"/>
<path d="M1207.7,608.9h-10.8v10.8h-7v9.8h6.4v17.3c0,9.8,5.4,14.1,13.1,14.1c2.6,0,5.1-0.5,7.5-1.4v-10.2c-1.3,0.6-2.7,0.8-4.1,0.9
	c-3.3,0-5.7-1.4-5.7-5.8v-14.8h9.8v-9.8h-9.2L1207.7,608.9z"/>
<path d="M1240.8,619c-11.7-0.1-21.1,9.3-21.2,21c-0.1,11.7,9.3,21.1,21,21.2c11.7,0.1,21.1-9.3,21.2-21c0,0,0,0,0,0
	c0.1-11.6-9.2-21.1-20.8-21.2C1240.9,619,1240.9,619,1240.8,619z M1240.8,650.4c-5.7,0-10.3-4.7-10.2-10.4c0-5.7,4.7-10.3,10.4-10.2
	c5.7,0,10.3,4.7,10.2,10.4c0,5.6-4.5,10.2-10.1,10.3C1241,650.4,1240.9,650.4,1240.8,650.4L1240.8,650.4z"/>
<rect x="1174.4" y="619.7" width="10.8" height="40.8"/>
<path d="M1180.3,601.1c-4.4,0-8,3.6-8,8c-0.1,4.1,3.1,7.6,7.3,7.7c0.1,0,0.3,0,0.4,0c4.3,0.1,7.9-3.4,8-7.7
	C1188,604.8,1184.5,601.2,1180.3,601.1L1180.3,601.1z"/>
<polygon points="1018.8,619.7 1006.5,619.7 993.5,636.9 993.5,619.7 983,619.7 983,660.5 993.5,660.5 993.5,641.6 1007.8,660.5 
	1020.3,660.5 1004,638.9 "/>
<polygon points="1148.3,645.6 1138.9,619.7 1127.6,619.7 1142.8,660.5 1154.1,660.5 1169.6,619.7 1158.2,619.7 "/>
<path d="M955.9,619c-11.5,0-20.5,9.5-20.5,21.2s8.5,21,20.5,21c8.7,0.2,16.4-5.5,18.9-13.8h-10.4c-1.3,2.7-4,4.1-8.5,4.1
	c-5.5,0-9.7-3.5-10-8.5h29.6c0.1-1.3,0.3-2.6,0.3-3.5C975.8,628.5,967.5,619,955.9,619z M946.2,635.8c1.2-4.3,5.2-7.2,9.7-7.1
	c4.4-0.2,8.3,2.8,9.4,7.1H946.2z"/>
<polygon points="1021.8,629.8 1033.5,629.8 1033.5,660.5 1044.1,660.5 1044.1,629.8 1055.8,629.8 1055.8,619.7 1021.8,619.7 "/>
<path d="M1097.8,602.4l-22.2,58.1h11.9l4.5-12.1h23.3l4.4,12.1h11.8l-21.6-58.1H1097.8z M1096,637.8l7.8-21l7.7,21H1096z"/>
<path d="M864.9,578.8l-6.3-18.8h-41.5l-6.3,18.8h-22.2l36.5-104.2h25.5l36.6,104.2H864.9z M823.6,540.8h28.6l-14.3-42.6L823.6,540.8
	z"/>
<path d="M950,540.7c7,3.4,10.4,9,10.4,17c0.2,5.8-2.2,11.4-6.5,15.2c-4.3,3.9-10.4,5.9-18.4,5.9h-39.2v-74.5h36.2
	c7.8,0,13.9,1.9,18.2,5.8c4.3,3.9,6.5,8.9,6.5,15.2C957.3,531.9,954.9,537,950,540.7z M930.8,520.2h-16.4v13.4h16.4
	c5.5,0,8.2-2.2,8.2-6.7S936.3,520.2,930.8,520.2L930.8,520.2z M933.4,562.6c5.6,0,8.3-2.4,8.3-7.2c0.1-1.9-0.7-3.7-2.2-4.9
	c-1.8-1.3-3.9-1.9-6.1-1.8h-18.9v13.8H933.4z"/>
<path d="M1029.3,504.4v18.5H1006v56h-19.2v-56h-23.5v-18.5H1029.3z"/>
<path d="M1100,569.5c-15.4,15.6-40.6,15.7-56.2,0.3c-15.6-15.4-15.7-40.6-0.3-56.2c15.4-15.6,40.6-15.7,56.2-0.3
	c7.6,7.5,11.8,17.6,11.8,28.3C1111.6,552.1,1107.5,562.2,1100,569.5z M1057.6,556.3c3.8,3.9,9,6,14.4,5.8c5.4,0.1,10.6-2,14.4-5.8
	c7.7-8.3,7.7-21.2,0-29.5c-3.8-3.8-9-5.9-14.4-5.8c-5.4-0.2-10.6,2-14.4,5.8C1050,535.2,1050,548,1057.6,556.3z"/>
<path d="M1188.4,578.8h-22.2l-16.1-22.6l-16.2,22.6h-22.2l27.3-38l-26.1-36.5h22.2l15,21l15-21h22l-26,36.3L1188.4,578.8z"/>
<path d="M1249.4,504.4h19.2v74.5h-19.2V570c-5.8,7.2-13.9,10.9-24.3,10.9c-9.9,0-18.4-3.8-25.5-11.4c-7.1-7.6-10.7-16.9-10.6-27.9
	c0-11,3.6-20.3,10.7-27.9c7.1-7.6,15.6-11.4,25.5-11.4c10.4,0,18.5,3.6,24.3,10.9L1249.4,504.4z M1213.9,556.7
	c3.9,3.9,9.2,6.1,14.7,5.9c5.5,0.2,10.9-2,14.8-5.9c3.9-3.9,5.9-9,5.9-15.1s-2-11.2-5.9-15.1c-3.9-3.9-9.3-6-14.8-5.9
	c-5.5-0.2-10.9,2-14.7,5.9c-3.9,3.9-5.8,9-5.8,15.1C1208.1,547.8,1210,552.8,1213.9,556.7z"/>
<path d="M1322.2,503.4c-9.4,0-16.2,3.7-20.8,7.7c4.2-8.9,12.1-14.5,22.7-15.7c24.4-2.8,34.1-9.7,34.5-24.7l0.1-2.5h-18.3v2.4
	c0,2.6-2.3,5.3-18.7,7c-27.2,2.8-41.5,22.1-41.5,55.9v5.8c0,24.6,17.6,44,40,44c22,0,39.9-18,40-40
	C1360.1,520.6,1343.8,503.4,1322.2,503.4z M1320.2,565.1c-12,0-21.7-9.7-21.7-21.7c0-12,9.7-21.7,21.7-21.7c0,0,0,0,0,0
	c5.8,0,11.3,2.3,15.4,6.4c4.1,4.1,6.4,9.6,6.4,15.4C1341.9,555.4,1332.2,565.1,1320.2,565.1z"/>
</svg>
