<svg width="758" height="155" viewBox="0 0 758 155" fill="none" xmlns="http://www.w3.org/2000/svg">
<path d="M76.2998 115.329C96.7343 115.329 113.3 98.3953 113.3 77.5067C113.3 56.618 96.7343 39.6844 76.2998 39.6844C55.8653 39.6844 39.2998 56.618 39.2998 77.5067C39.2998 98.3953 55.8653 115.329 76.2998 115.329Z" fill="#00AAFF"/>
<path d="M50.0999 104.289C36.7999 90.6933 19.4999 82.2089 0.899902 80.0622V101.427L52.9999 154.684H73.9999C71.7999 135.569 63.3999 117.884 50.0999 104.289Z" fill="#FF4053"/>
<path d="M102.5 50.7244C115.8 64.32 133.1 72.8044 151.8 74.9511V53.6889L99.6999 0.431091H78.8999C80.9999 19.5466 89.2999 37.2311 102.5 50.7244Z" fill="#965EEB"/>
<path d="M102.5 104.289C89.1998 117.884 80.7998 135.671 78.7998 154.684H99.6998L151.8 101.427V80.0622C133.1 82.2089 115.8 90.6933 102.5 104.289Z" fill="#04E061"/>
<path d="M50.0999 50.7244C63.3999 37.2311 71.6999 19.4444 73.7999 0.533325H52.9999L0.899902 53.7911V75.0534C19.5999 72.9067 36.8999 64.32 50.0999 50.7244Z" fill="#04E061"/>
<path d="M262.7 129.947L256.4 110.729H214.9L208.6 129.947H186.4L222.9 23.4311H248.4L285 129.947H262.7ZM221.4 91.1022H250L235.7 47.5555L221.4 91.1022Z" fill="black"/>
<path d="M347.9 91C354.8 94.4756 358.3 100.2 358.3 108.378C358.5 114.307 356.1 120.031 351.8 124.018C347.5 128.004 341.4 130.049 333.4 130.049H294.2V53.8934H330.4C338.2 53.8934 344.3 55.8356 348.6 59.8222C352.9 63.8089 355.1 68.92 355.1 75.36C355.1 82.0045 352.7 87.2178 347.9 91ZM328.7 70.0445H312.3V83.7423H328.7C334.2 83.7423 336.9 81.4934 336.9 76.8934C336.9 72.2934 334.1 70.0445 328.7 70.0445ZM331.2 113.387C336.8 113.387 339.5 110.933 339.5 106.027C339.6 104.084 338.7 102.244 337.3 101.018C335.5 99.6889 333.4 99.0756 331.2 99.1778H312.2V113.284H331.2V113.387Z" fill="black"/>
<path d="M427.1 53.8934V72.8045H403.9V130.049H384.7V72.8045H361.2V53.8934H427.1Z" fill="black"/>
<path d="M497.8 120.44C482.4 136.387 457.2 136.489 441.6 120.747C426 105.004 425.9 79.2445 441.3 63.2978C456.7 47.3511 481.9 47.2489 497.5 62.9911C505.1 70.6578 509.3 80.9823 509.3 91.92C509.4 102.653 505.3 112.978 497.8 120.44ZM455.4 107.049C459.2 111.036 464.4 113.182 469.8 112.978C475.2 113.08 480.4 110.933 484.2 107.049C491.9 98.5645 491.9 85.3778 484.2 76.8934C480.4 73.0089 475.2 70.8623 469.8 70.9645C464.4 70.8623 459.2 73.0089 455.4 76.8934C447.8 85.3778 447.8 98.4622 455.4 107.049Z" fill="black"/>
<path d="M586.2 129.947H564L547.9 106.844L531.7 129.947H509.5L536.8 91.1022L510.7 53.7911H532.8L547.8 75.2578L562.8 53.7911H584.8L558.7 90.8978L586.2 129.947Z" fill="black"/>
<path d="M647.2 53.8933H666.4V130.049H647.2V121.053C641.4 128.413 633.4 132.093 622.9 132.093C613 132.093 604.5 128.209 597.4 120.44C590.3 112.671 586.8 103.164 586.7 91.92C586.7 80.6755 590.3 71.1689 597.4 63.4C604.5 55.6311 613 51.7466 622.9 51.7466C633.3 51.7466 641.4 55.4266 647.2 62.8889V53.8933ZM611.7 107.356C615.6 111.342 620.9 113.591 626.4 113.387C631.9 113.591 637.3 111.342 641.2 107.356C645.1 103.369 647.1 98.1555 647.1 91.92C647.1 85.5822 645.1 80.4711 641.2 76.4844C637.3 72.4977 631.9 70.3511 626.4 70.4533C620.9 70.2489 615.5 72.4977 611.7 76.4844C607.8 80.4711 605.9 85.6844 605.9 91.92C605.9 98.1555 607.8 103.369 611.7 107.356Z" fill="black"/>
<path d="M720 52.9733C710.6 52.9733 703.8 56.7555 699.2 60.8444C703.4 51.7466 711.3 46.0222 721.9 44.7955C746.3 41.9333 756 34.88 756.4 19.5466L756.5 16.9911H738.2V19.4444C738.2 22.1022 735.9 24.8622 719.5 26.6C692.3 29.4622 678 49.1911 678 83.7422V89.6711C678 114.818 695.6 134.547 718 134.547C740 134.547 757.9 116.147 758 93.6577C757.9 70.4533 741.6 52.9733 720 52.9733ZM739.7 93.76C739.7 106.027 729.9 115.942 717.9 115.942H717C705.5 115.431 696.2 105.72 696.2 93.76C696.2 81.4933 705.9 71.5778 717.9 71.5778C729.9 71.5778 739.7 81.4933 739.7 93.76Z" fill="black"/>
</svg>
