<svg width="124" height="124" viewBox="0 0 124 124" fill="none" xmlns="http://www.w3.org/2000/svg">
<path d="M123.251 56.2136L123.294 56.6749C107.299 58.1563 92.3683 61.0908 81.2433 64.913L81.0899 64.9272C74.3257 67.26 69.4407 73.1422 68.3899 80.2198L68.4041 80.3732C66.5357 92.0255 66.3945 107.24 68.0292 123.222L67.26 123.293C65.7785 107.298 62.844 92.3672 59.0219 81.2422L59.0077 81.0887C56.6748 74.3246 50.6394 69.4538 43.7151 68.3887L43.5617 68.403C31.9093 66.5346 16.6946 66.3934 0.713297 68.0281L0.68478 67.7202L0.669498 67.5669L0.64098 67.259C16.6359 65.7775 31.5666 62.843 42.6916 59.0209L42.845 59.0067C49.595 56.5204 54.48 50.6383 55.545 43.7141L55.5308 43.5606C57.3992 31.9083 57.5404 16.6936 55.9057 0.712291L56.6749 0.641046C58.1563 16.636 61.0909 31.5667 64.913 42.6917L64.9272 42.8451C67.2601 49.6092 73.1423 54.4943 80.2198 55.5451L80.3732 55.5309C92.0256 57.3993 107.24 57.5405 123.222 55.9057L123.251 56.2136Z" fill="black"/>
</svg>
