<svg width="123" height="123" viewBox="0 0 123 123" fill="none" xmlns="http://www.w3.org/2000/svg">
<path d="M122.023 72.1578L121.941 72.6139C106.128 69.7903 90.9543 68.6504 79.2136 69.3778L79.0619 69.3507C71.921 69.8016 65.6481 74.1737 62.7538 80.7173L62.7267 80.869C57.8282 91.6055 53.6477 106.235 50.9755 122.076L50.215 121.94C53.0386 106.127 54.1785 90.9535 53.4511 79.2127L53.4782 79.0611C53.0272 71.9201 48.5037 65.6202 42.1116 62.7529L41.9599 62.7259C31.2234 57.8273 16.5936 53.6468 0.752731 50.9747L0.807086 50.6703L0.833108 50.5184L0.887462 50.214C16.7007 53.0376 31.8743 54.1775 43.6151 53.45L43.7668 53.4771C50.9348 52.8745 57.2076 48.5026 60.0749 42.1106L60.102 41.9589C65.0005 31.2224 69.181 16.5926 71.8532 0.751699L72.6137 0.887492C69.7901 16.7008 68.6502 31.8743 69.3776 43.6151L69.3505 43.7668C69.8014 50.9077 74.1735 57.1806 80.7171 60.0749L80.8688 60.102C91.6052 65.0005 106.235 69.181 122.076 71.8532L122.023 72.1578Z" fill="black"/>
</svg>
