<svg width="108" height="108" viewBox="0 0 108 108" fill="none" xmlns="http://www.w3.org/2000/svg">
<path d="M106.99 50.2516L107.016 50.6529C93.1013 51.529 80.0729 53.693 70.3235 56.7243L70.19 56.7327C64.262 58.5836 59.8735 63.5619 58.7808 69.6752L58.7892 69.8086C56.8702 79.87 56.3585 93.0661 57.368 106.973L56.6988 107.015C55.8227 93.1003 53.6587 80.0719 50.6274 70.3225L50.619 70.1891C48.7681 64.2611 43.6565 59.881 37.6765 58.7799L37.5431 58.7883C27.4817 56.8693 14.2856 56.3576 0.379034 57.367L0.362169 57.0991L0.352833 56.9657L0.335968 56.6979C14.2504 55.8218 27.2788 53.6578 37.0282 50.6265L37.1617 50.6181C43.0813 48.6337 47.4698 43.6556 48.5709 37.6756L48.5625 37.5422C50.4815 27.4808 50.9932 14.2847 49.9838 0.378143L50.653 0.33601C51.529 14.2505 53.693 27.2789 56.7244 37.0283L56.7328 37.1617C58.5837 43.0897 63.5619 47.4783 69.6752 48.571L69.8087 48.5626C79.87 50.4815 93.0661 50.9932 106.973 49.9838L106.99 50.2516Z" fill="black"/>
</svg>
