<?xml version="1.0" encoding="utf-8"?><svg viewBox="0 0 1920 1080" xmlns="http://www.w3.org/2000/svg" xmlns:xlink="http://www.w3.org/1999/xlink"><style>:root>svg{display:none}:root>svg:target{display:block}</style><svg version="1.1" id="4.3" x="0" y="0" viewBox="0 0 1920 1080" xml:space="preserve" xmlns="http://www.w3.org/2000/svg"><style/><circle cx="631.3" cy="526.8" r="37"/><path d="M605.1 553a82.555 82.555 0 00-49.2-23.7v20.9l52.1 52.1h21c-2.2-18.7-10.6-36-23.9-49.3zM657.5 500.6c13.3 13.3 30.6 21.6 49.3 23.7v-20.8l-52.1-52.1h-20.8c2.1 18.7 10.4 36 23.6 49.2zM657.5 553c-13.3 13.3-21.7 30.7-23.7 49.3h20.9l52.1-52.1v-20.9c-18.7 2.1-36 10.4-49.3 23.7zM605.1 500.6c13.3-13.2 21.6-30.6 23.7-49.1H608l-52.1 52.1v20.8c18.7-2.1 36-10.5 49.2-23.8zM817.7 578.1l-6.3-18.8h-41.5l-6.3 18.8h-22.2l36.5-104.2h25.5L840 578.1h-22.3zm-41.3-38H805l-14.3-42.6-14.3 42.6zM902.9 540c6.9 3.4 10.4 9 10.4 17 .2 5.8-2.2 11.4-6.5 15.3-4.3 3.9-10.4 5.9-18.4 5.9h-39.2v-74.5h36.2c7.8 0 13.9 1.9 18.2 5.8 4.3 3.9 6.5 8.9 6.5 15.2 0 6.5-2.4 11.6-7.2 15.3zm-19.2-20.5h-16.4v13.4h16.4c5.5 0 8.2-2.2 8.2-6.7s-2.8-6.7-8.2-6.7zm2.5 42.4c5.6 0 8.3-2.4 8.3-7.2.1-1.9-.8-3.7-2.2-4.9-1.8-1.3-3.9-1.9-6.1-1.8h-19v13.8h19v.1zM982.1 503.7v18.5h-23.2v56h-19.2v-56h-23.5v-18.5h65.9zM1052.8 568.8c-15.4 15.6-40.6 15.7-56.2.3-15.6-15.4-15.7-40.6-.3-56.2 15.4-15.6 40.6-15.7 56.2-.3 7.6 7.5 11.8 17.6 11.8 28.3.1 10.5-4 20.6-11.5 27.9zm-42.4-13.1c3.8 3.9 9 6 14.4 5.8 5.4.1 10.6-2 14.4-5.8 7.7-8.3 7.7-21.2 0-29.5-3.8-3.8-9-5.9-14.4-5.8-5.4-.1-10.6 2-14.4 5.8-7.6 8.3-7.6 21.1 0 29.5zM1141.2 578.1H1119l-16.1-22.6-16.2 22.6h-22.2l27.3-38-26.1-36.5h22.1l15 21 15-21h22l-26.1 36.3 27.5 38.2zM1202.2 503.7h19.2v74.5h-19.2v-8.8c-5.8 7.2-13.8 10.8-24.3 10.8-9.9 0-18.4-3.8-25.5-11.4s-10.6-16.9-10.7-27.9c0-11 3.6-20.3 10.7-27.9 7.1-7.6 15.6-11.4 25.5-11.4 10.4 0 18.5 3.6 24.3 10.9v-8.8zm-35.5 52.3c3.9 3.9 9.2 6.1 14.7 5.9 5.5.2 10.9-2 14.8-5.9s5.9-9 5.9-15.1c0-6.2-2-11.2-5.9-15.1-3.9-3.9-9.3-6-14.8-5.9-5.5-.2-10.9 2-14.7 5.9-3.9 3.9-5.8 9-5.8 15.1s1.9 11.2 5.8 15.1zM1275 502.8c-9.4 0-16.2 3.7-20.8 7.7 4.2-8.9 12.1-14.5 22.7-15.7 24.4-2.8 34.1-9.7 34.5-24.7l.1-2.5h-18.3v2.4c0 2.6-2.3 5.3-18.7 7-27.2 2.8-41.5 22.1-41.5 55.9v5.8c0 24.6 17.6 43.9 40 43.9 22 0 39.9-18 40-40-.1-22.7-16.4-39.8-38-39.8zm19.7 39.9c0 12-9.8 21.7-21.8 21.7h-.9c-11.5-.5-20.8-10-20.8-21.7 0-12 9.7-21.7 21.7-21.7s21.8 9.7 21.8 21.7z"/></svg><svg viewBox="0 0 28 15" id="arrow" xmlns="http://www.w3.org/2000/svg"><path d="M.397.388A1.38 1.38 0 012.16.26l.152.128L14 11.804 25.687.388A1.38 1.38 0 0127.451.26l.152.128c.481.47.525 1.205.131 1.723l-.13.148-12.646 12.353a1.38 1.38 0 01-1.764.129l-.152-.129L.397 2.26a1.302 1.302 0 010-1.871z"/></svg></svg>