<svg width="108" height="108" viewBox="0 0 108 108" fill="none" xmlns="http://www.w3.org/2000/svg">
<path d="M106.99 50.2519L107.016 50.6532C93.1013 51.5293 80.0729 53.6932 70.3235 56.7246L70.19 56.733C64.262 58.5839 59.8735 63.5621 58.7808 69.6754L58.7892 69.8089C56.8702 79.8702 56.3585 93.0664 57.368 106.973L56.6988 107.015C55.8227 93.1006 53.6587 80.0722 50.6274 70.3228L50.619 70.1893C48.7681 64.2613 43.6565 59.8812 37.6765 58.7801L37.5431 58.7885C27.4817 56.8695 14.2856 56.3578 0.379034 57.3672L0.362169 57.0994L0.352833 56.966L0.335968 56.6981C14.2504 55.822 27.2788 53.6581 37.0282 50.6267L37.1617 50.6183C43.0813 48.634 47.4698 43.6559 48.5709 37.6759L48.5625 37.5424C50.4815 27.4811 50.9932 14.2849 49.9838 0.378387L50.653 0.336254C51.529 14.2507 53.693 27.2791 56.7244 37.0285L56.7328 37.162C58.5837 43.09 63.5619 47.4785 69.6752 48.5712L69.8087 48.5628C79.87 50.4818 93.0661 50.9935 106.973 49.9841L106.99 50.2519Z" fill="black"/>
</svg>
