<?xml version="1.0" encoding="utf-8"?>
<!-- Generator: Adobe Illustrator 24.0.1, SVG Export Plug-In . SVG Version: 6.00 Build 0)  -->
<svg version="1.1" id="Layer_1" xmlns="http://www.w3.org/2000/svg" xmlns:xlink="http://www.w3.org/1999/xlink" x="0px" y="0px"
	 viewBox="0 0 1920 1080" style="enable-background:new 0 0 1920 1080;" xml:space="preserve">
<style type="text/css">
	.st0{fill:#00AAFF;}
	.st1{fill:#FF4053;}
	.st2{fill:#965EEB;}
	.st3{fill:#04E061;}
</style>
<title>x</title>
<circle class="st0" cx="631.3" cy="526.8" r="37"/>
<path class="st1" d="M605.1,553c-13.3-13.3-30.6-21.6-49.2-23.7v20.9l52.1,52.1H629C626.8,583.6,618.4,566.3,605.1,553z"/>
<path class="st2" d="M657.5,500.6c13.3,13.3,30.6,21.6,49.3,23.7v-20.8l-52.1-52.1h-20.8C636,470.1,644.3,487.4,657.5,500.6
	L657.5,500.6z"/>
<path class="st3" d="M657.5,553c-13.3,13.3-21.7,30.7-23.7,49.3h20.9l52.1-52.1v-20.9C688.1,531.4,670.8,539.7,657.5,553z"/>
<path class="st3" d="M605.1,500.6L605.1,500.6c13.3-13.2,21.6-30.6,23.7-49.1H608l-52.1,52.1v20.8
	C574.6,522.3,591.9,513.9,605.1,500.6L605.1,500.6z"/>
<path d="M817.7,578.1l-6.3-18.8h-41.5l-6.3,18.8h-22.2l36.5-104.2h25.5L840,578.1H817.7z M776.4,540.1H805l-14.3-42.6L776.4,540.1z"
	/>
<path d="M902.9,540c6.9,3.4,10.4,9,10.4,17c0.2,5.8-2.2,11.4-6.5,15.3c-4.3,3.9-10.4,5.9-18.4,5.9h-39.2v-74.5h36.2
	c7.8,0,13.9,1.9,18.2,5.8c4.3,3.9,6.5,8.9,6.5,15.2C910.1,531.2,907.7,536.3,902.9,540z M883.7,519.5h-16.4v13.4h16.4
	c5.5,0,8.2-2.2,8.2-6.7S889.1,519.5,883.7,519.5L883.7,519.5z M886.2,561.9c5.6,0,8.3-2.4,8.3-7.2c0.1-1.9-0.8-3.7-2.2-4.9
	c-1.8-1.3-3.9-1.9-6.1-1.8h-19v13.8h19V561.9z"/>
<path d="M982.1,503.7v18.5h-23.2v56h-19.2v-56h-23.5v-18.5H982.1z"/>
<path d="M1052.8,568.8c-15.4,15.6-40.6,15.7-56.2,0.3c-15.6-15.4-15.7-40.6-0.3-56.2c15.4-15.6,40.6-15.7,56.2-0.3
	c7.6,7.5,11.8,17.6,11.8,28.3C1064.4,551.4,1060.3,561.5,1052.8,568.8z M1010.4,555.7c3.8,3.9,9,6,14.4,5.8c5.4,0.1,10.6-2,14.4-5.8
	c7.7-8.3,7.7-21.2,0-29.5c-3.8-3.8-9-5.9-14.4-5.8c-5.4-0.1-10.6,2-14.4,5.8C1002.8,534.5,1002.8,547.3,1010.4,555.7z"/>
<path d="M1141.2,578.1H1119l-16.1-22.6l-16.2,22.6h-22.2l27.3-38l-26.1-36.5h22.1l15,21l15-21h22l-26.1,36.3L1141.2,578.1z"/>
<path d="M1202.2,503.7h19.2v74.5h-19.2v-8.8c-5.8,7.2-13.8,10.8-24.3,10.8c-9.9,0-18.4-3.8-25.5-11.4s-10.6-16.9-10.7-27.9
	c0-11,3.6-20.3,10.7-27.9c7.1-7.6,15.6-11.4,25.5-11.4c10.4,0,18.5,3.6,24.3,10.9V503.7z M1166.7,556c3.9,3.9,9.2,6.1,14.7,5.9
	c5.5,0.2,10.9-2,14.8-5.9s5.9-9,5.9-15.1c0-6.2-2-11.2-5.9-15.1c-3.9-3.9-9.3-6-14.8-5.9c-5.5-0.2-10.9,2-14.7,5.9
	c-3.9,3.9-5.8,9-5.8,15.1S1162.8,552.1,1166.7,556L1166.7,556z"/>
<path d="M1275,502.8c-9.4,0-16.2,3.7-20.8,7.7c4.2-8.9,12.1-14.5,22.7-15.7c24.4-2.8,34.1-9.7,34.5-24.7l0.1-2.5h-18.3v2.4
	c0,2.6-2.3,5.3-18.7,7c-27.2,2.8-41.5,22.1-41.5,55.9v5.8c0,24.6,17.6,43.9,40,43.9c22,0,39.9-18,40-40
	C1312.9,519.9,1296.6,502.8,1275,502.8z M1294.7,542.7c0,12-9.8,21.7-21.8,21.7l0,0h-0.9c-11.5-0.5-20.8-10-20.8-21.7
	c0-12,9.7-21.7,21.7-21.7S1294.7,530.7,1294.7,542.7z"/>
</svg>
